# xmcd CD database file
#
# Track frame offsets:
#	187
#	21077
#	40007
#	62897
#
# Disc length: 971 seconds
#
# Revision: 1
# Processed by: cddbd v1.5.2PL0 Copyright (c) Steve Scherf et al.
# Submitted via: CDex 1.70beta3
#
DISCID=2b03c904
DTITLE=MALTA - Face To Face
DYEAR=1900
DGENRE=Jazz
TTITLE0=Face To Face
TTITLE1=Bay Side Street
TTITLE2=Sexy Galaxy 2
TTITLE3=Face To Face 2
EXTD=
EXTT0=
EXTT1=
EXTT2=
EXTT3=
PLAYORDER=
